<svg xmlns="http://www.w3.org/2000/svg" data-name="Layer 1" viewBox="0 0 100 125" x="0px" y="0px"><title>chip</title><path d="M71.36,33.92V29.71H65.67V27.27a1.58,1.58,0,0,0-1.58-1.58H60.74V20H56.53v5.69H52.11V20H47.89v5.69H43.47V20H39.26v5.69H35.91a1.58,1.58,0,0,0-1.58,1.58v2.44H28.64v4.21h5.69V38.8H28.64V43h5.69v4.88H28.64v4.22h5.69V57H28.64V61.2h5.69v4.88H28.64v4.21h5.69v2.44a1.58,1.58,0,0,0,1.58,1.58h3.35V80h4.21V74.31h4.42V80h4.22V74.31h4.42V80h4.21V74.31h3.35a1.58,1.58,0,0,0,1.58-1.58V70.29h5.69V66.08H65.67V61.2h5.69V57H65.67V52.11h5.69V47.89H65.67V43h5.69V38.8H65.67V33.92ZM57.49,64.55a1.57,1.57,0,0,1-1.58,1.57H44.09a1.57,1.57,0,0,1-1.58-1.57V35.45a1.57,1.57,0,0,1,1.58-1.57H55.91a1.57,1.57,0,0,1,1.58,1.57Z"/></svg>